<svg aria-hidden="true" style="position:absolute;width:0;height:0;overflow:hidden" xmlns="http://www.w3.org/2000/svg"><defs><symbol id="icon-dribbble" viewBox="0 0 32 32"><path d="M26.652 15.429a10.608 10.608 0 0 0-2.097-5.801c-.383.413-.793.8-1.227 1.16a17.552 17.552 0 0 1-4.417 2.68c.223.467.427.919.607 1.345v.004c.051.119.1.239.147.36 2.019-.227 4.147-.144 6.209.135.274.037.533.077.779.117zM14.139 5.496a61.596 61.596 0 0 1 3.589 5.693c1.631-.643 2.979-1.453 4.064-2.356.377-.31.731-.647 1.061-1.007A10.62 10.62 0 0 0 16 5.333c-.624 0-1.247.054-1.861.161v.001zm-8.468 7.833a39.22 39.22 0 0 0 2.72-.164 42.104 42.104 0 0 0 6.483-1.096 72.568 72.568 0 0 0-3.6-5.636 10.684 10.684 0 0 0-5.603 6.896zm2.04 9.384a18.958 18.958 0 0 1 2.1-2.532c1.939-1.987 4.227-3.533 6.875-4.387l.083-.024c-.22-.485-.427-.919-.635-1.327-2.448.713-5.027 1.159-7.596 1.389a41.366 41.366 0 0 1-3.204.171 10.624 10.624 0 0 0 2.379 6.709h-.001zm12.296 3.173a47.912 47.912 0 0 0-2.176-7.612c-2.669.969-4.796 2.387-6.44 4.077-.663.67-1.252 1.41-1.756 2.207A10.618 10.618 0 0 0 16 26.666a10.645 10.645 0 0 0 4.007-.777v-.003zm2.497-1.433c2.082-1.6 3.5-3.912 3.983-6.493a16.342 16.342 0 0 0-1.66-.315 16.051 16.051 0 0 0-4.24-.044 52.485 52.485 0 0 1 1.917 6.853v-.001zM16 29.333C8.636 29.333 2.667 23.364 2.667 16S8.636 2.667 16 2.667 29.333 8.636 29.333 16 23.364 29.333 16 29.333z"/></symbol><symbol id="icon-facebook" viewBox="0 0 32 32"><path d="M18.666 18h3.333l1.333-5.333h-4.667V10c0-1.373 0-2.667 2.667-2.667h2v-4.48c-.435-.057-2.076-.187-3.809-.187-3.62 0-6.191 2.209-6.191 6.267v3.733h-4v5.333h4v11.333h5.333V17.999z"/></symbol><symbol id="icon-instagram" viewBox="0 0 32 32"><path d="M16 2.666c3.623 0 4.075.013 5.496.08 1.42.067 2.387.289 3.237.62a6.51 6.51 0 0 1 2.363 1.537 6.538 6.538 0 0 1 1.537 2.363c.329.849.553 1.817.62 3.237.063 1.421.08 1.873.08 5.496s-.013 4.075-.08 5.496c-.067 1.42-.291 2.387-.62 3.237a6.516 6.516 0 0 1-1.537 2.363 6.538 6.538 0 0 1-2.363 1.537c-.849.329-1.817.553-3.237.62-1.421.063-1.873.08-5.496.08s-4.075-.014-5.496-.08c-1.42-.067-2.387-.291-3.237-.62a6.53 6.53 0 0 1-2.363-1.537 6.53 6.53 0 0 1-1.537-2.363c-.331-.849-.553-1.817-.62-3.237-.063-1.421-.08-1.873-.08-5.496s.013-4.075.08-5.496c.067-1.421.289-2.387.62-3.237a6.516 6.516 0 0 1 1.537-2.363 6.53 6.53 0 0 1 2.363-1.537c.851-.331 1.816-.553 3.237-.62 1.421-.063 1.873-.08 5.496-.08zm0 6.667a6.67 6.67 0 0 0-4.714 11.381 6.67 6.67 0 0 0 9.428 0 6.67 6.67 0 0 0 0-9.428A6.67 6.67 0 0 0 16 9.333zM24.667 9a1.667 1.667 0 1 0-3.334 0 1.667 1.667 0 0 0 3.334 0zM16 12a4.003 4.003 0 0 1 4 4 4.003 4.003 0 0 1-4 4 4.003 4.003 0 0 1-4-4 4.003 4.003 0 0 1 4-4z"/></symbol><symbol id="icon-linkedin" viewBox="0 0 32 32"><path d="M9.254 6.667a2.667 2.667 0 1 1-5.334-.003 2.667 2.667 0 0 1 5.334.003zm.08 4.64H4.001V28h5.333V11.307zm8.426 0h-5.307V28h5.253v-8.76c0-4.88 6.36-5.333 6.36 0V28h5.267V17.427c0-8.227-9.413-7.92-11.627-3.88l.053-2.24z"/></symbol><symbol id="icon-twitter" viewBox="0 0 32 32"><path d="M29.549 7.542c-1.018.45-2.097.746-3.203.877a5.593 5.593 0 0 0 2.453-3.085 11.118 11.118 0 0 1-3.541 1.353 5.58 5.58 0 0 0-6.705-1.109 5.577 5.577 0 0 0-2.796 6.194A15.826 15.826 0 0 1 4.264 5.945a5.557 5.557 0 0 0-.755 2.804c0 1.933.984 3.641 2.48 4.641a5.562 5.562 0 0 1-2.525-.697v.069a5.58 5.58 0 0 0 4.473 5.468 5.603 5.603 0 0 1-2.52.096 5.58 5.58 0 0 0 5.209 3.873 11.198 11.198 0 0 1-8.254 2.309 15.783 15.783 0 0 0 8.547 2.507c10.257 0 15.867-8.497 15.867-15.867 0-.24-.007-.483-.017-.72a11.334 11.334 0 0 0 2.783-2.887l-.001-.001z"/></symbol><symbol id="icon-youtube" viewBox="0 0 32 32"><path d="M28.724 8.664c.609 2.376.609 7.336.609 7.336s0 4.96-.609 7.336c-.338 1.313-1.329 2.346-2.584 2.696-2.279.634-10.14.634-10.14.634s-7.857 0-10.14-.634c-1.26-.355-2.249-1.387-2.584-2.696C2.667 20.96 2.667 16 2.667 16s0-4.96.609-7.336c.339-1.313 1.329-2.347 2.584-2.696C8.143 5.333 16 5.333 16 5.333s7.861 0 10.14.635c1.26.355 2.249 1.387 2.584 2.696zm-15.39 12.003 8-4.667-8-4.667v9.333z"/></symbol>
<symbol id="icon-Ad-pop-up" viewBox="0 0 32 32">
<path d="M20.666 4.46c0.259 0 0.468-0.21 0.468-0.468s-0.21-0.468-0.468-0.468c-0.259 0-0.468 0.21-0.468 0.468s0.21 0.468 0.468 0.468z"></path>
<path d="M22.677 4.46c0.259 0 0.468-0.21 0.468-0.468s-0.21-0.468-0.468-0.468c-0.259 0-0.468 0.21-0.468 0.468s0.21 0.468 0.468 0.468z"></path>
<path d="M8.854 4.46h8.424c0.259 0 0.469-0.21 0.469-0.469s-0.21-0.469-0.469-0.469h-8.424c-0.259 0-0.469 0.21-0.469 0.469s0.21 0.469 0.469 0.469z"></path>
<path d="M30.755 25.673h-0.823v-3.071c0-0.259-0.21-0.469-0.469-0.469s-0.469 0.21-0.469 0.469v3.071c-2.009 0-24.749 0-25.989 0v-15.83c0-0.638 0.519-1.156 1.156-1.156h2.225v1.263h-1.22c-0.495 0-0.898 0.403-0.898 0.898v12.665c0 0.495 0.403 0.898 0.898 0.898h21.668c0.495 0 0.898-0.403 0.898-0.898v-12.665c0-0.495-0.403-0.898-0.898-0.898h-1.22v-1.263h2.225c0.637 0 1.156 0.519 1.156 1.156v10.567c0 0.259 0.21 0.469 0.469 0.469s0.469-0.21 0.469-0.469v-10.566c0-1.154-0.939-2.094-2.094-2.094h-2.225v-5.159c0-0.53-0.431-0.961-0.961-0.961h-17.305c-0.53 0-0.961 0.431-0.961 0.961v5.159h-2.225c-1.154 0-2.094 0.939-2.094 2.094v15.83h-0.823c-0.687-0-1.245 0.559-1.245 1.245 0 1.903 1.548 3.452 3.452 3.452h25.096c1.903 0 3.452-1.549 3.452-3.452 0-0.687-0.559-1.245-1.245-1.245zM5.206 10.887h1.18v12.586h-1.18v-12.586zM26.794 10.887v12.586h-1.18v-12.586h1.18zM7.348 2.567h17.305c0.013 0 0.024 0.011 0.024 0.024v2.825h-13.685c-0.259 0-0.469 0.21-0.469 0.469s0.21 0.469 0.469 0.469h13.685v17.12h-17.352v-17.12h1.476c0.259 0 0.469-0.21 0.469-0.469s-0.21-0.469-0.469-0.469h-1.476v-2.825c0-0.013 0.011-0.024 0.024-0.024zM11.481 26.611h9.037v0.471c0 0.26-0.211 0.471-0.471 0.471h-8.095c-0.26 0-0.471-0.211-0.471-0.471v-0.471zM28.548 29.433h-25.096c-1.386 0-2.514-1.128-2.514-2.514 0-0.17 0.138-0.308 0.308-0.308h9.298v0.471c0 0.777 0.632 1.409 1.409 1.409h8.095c0.777 0 1.409-0.632 1.409-1.409v-0.471h9.298c0.17 0 0.308 0.138 0.308 0.308 0 1.386-1.128 2.514-2.514 2.514z"></path>
<path d="M9.751 15.053l-0.34 0.088c-0.754 0.194-1.208 0.962-1.013 1.717l0.235 0.911c0.164 0.635 0.738 1.058 1.365 1.058 0.27 0 0.42-0.071 0.747-0.147 0.238 0.277 0.6 0.43 0.975 0.394l1.644 2.492c0.171 0.259 0.458 0.409 0.759 0.409 0.186 0 0.267-0.047 0.759-0.166 0.487-0.125 0.779-0.62 0.654-1.107l-0.627-2.433 0.669-0.172c1.782-0.459 3.659-0.020 5.050 1.175l0.006 0.023c0.090 0.351 0.312 0.645 0.624 0.829 0.212 0.125 0.447 0.189 0.687 0.189 0.113 0 0.228-0.014 0.34-0.043 0.351-0.090 0.645-0.312 0.829-0.624s0.236-0.677 0.145-1.027l-2.5-9.704c-0.090-0.351-0.312-0.645-0.624-0.829s-0.677-0.236-1.027-0.145c-0.351 0.090-0.645 0.312-0.829 0.624s-0.236 0.677-0.145 1.027l0.006 0.023c-0.641 1.718-2.071 3.009-3.853 3.468l-3.68 0.948c-0.487 0.125-0.819 0.549-0.853 1.024zM10.115 17.874c-0.252 0.065-0.51-0.087-0.575-0.339l-0.235-0.911c-0.065-0.253 0.087-0.51 0.339-0.575l0.281-0.073 0.47 1.825-0.281 0.073zM14.619 20.907l-0.485 0.125-1.446-2.192 1.311-0.338 0.62 2.405zM19.084 9.039c0.057-0.096 0.148-0.164 0.256-0.192 0.035-0.009 0.070-0.013 0.104-0.013 0.186 0 0.356 0.125 0.405 0.314l2.5 9.704c0.058 0.223-0.077 0.452-0.3 0.509s-0.452-0.077-0.509-0.3l-2.5-9.704c-0.028-0.108-0.012-0.221 0.045-0.317zM18.499 11.016l1.765 6.852c-2.527-1.473-4.934-0.665-4.99-0.662l-0.824-3.2c0.051-0.024 2.545-0.475 4.049-2.99zM10.838 14.937l2.705-0.697 0.824 3.2c-0.823 0.212-2.137 0.551-2.705 0.697-0.197 0.050-0.246-0.149-0.251-0.155l-0.72-2.796c-0.028-0.109 0.038-0.221 0.147-0.249z"></path>
</symbol>
<symbol id="icon-Blog" viewBox="0 0 32 32">
<path d="M28 2.667c-20 0-22.667 18.667-24 26.667h2.664c0.888-4.444 3.111-6.888 6.669-7.333 5.333-0.667 9.333-5.333 10.667-9.333l-2-1.333 1.333-1.333c1.333-1.333 2.672-3.333 4.667-7.333z"></path>
</symbol>
<symbol id="icon-Check" viewBox="0 0 32 32">
<path d="M13.333 20.229l12.256-12.257 1.887 1.885-14.143 14.143-8.485-8.485 1.885-1.885 6.6 6.6z"></path>
</symbol>
<symbol id="icon-Close" viewBox="0 0 32 32">
<path d="M16 14.115l6.6-6.6 1.885 1.885-6.6 6.6 6.6 6.6-1.885 1.885-6.6-6.6-6.6 6.6-1.885-1.885 6.6-6.6-6.6-6.6 1.885-1.885 6.6 6.6z"></path>
</symbol>
<symbol id="icon-coding" viewBox="0 0 32 32">
<path d="M29.75 3.5h-27.5c-0.464 0.001-0.909 0.185-1.237 0.513s-0.513 0.773-0.513 1.237v17.5c0 0.464 0.185 0.909 0.513 1.237s0.773 0.513 1.237 0.513h10.011l-0.6 1.5h-2.661c-0.133 0-0.26 0.053-0.354 0.146s-0.146 0.221-0.146 0.354v1h-3c-0.133 0-0.26 0.053-0.354 0.146s-0.146 0.221-0.146 0.354c0 0.133 0.053 0.26 0.146 0.354s0.221 0.146 0.354 0.146h21c0.133 0 0.26-0.053 0.354-0.146s0.146-0.221 0.146-0.354c0-0.133-0.053-0.26-0.146-0.354s-0.221-0.146-0.354-0.146h-3v-1c0-0.133-0.053-0.26-0.146-0.354s-0.221-0.146-0.354-0.146h-2.661l-0.6-1.5h10.011c0.464-0.001 0.909-0.185 1.237-0.513s0.513-0.773 0.513-1.237v-17.5c-0.001-0.464-0.185-0.909-0.513-1.237s-0.773-0.513-1.237-0.513zM22.5 27v0.5h-13v-0.5h13zM12.739 26l0.6-1.5h5.323l0.6 1.5h-6.523zM30.5 22.75c-0 0.199-0.079 0.39-0.22 0.53s-0.331 0.22-0.53 0.22h-27.5c-0.199-0-0.39-0.079-0.53-0.22s-0.22-0.331-0.22-0.53v-1.25h29v1.25zM30.5 20.5h-29v-15.25c0-0.199 0.079-0.389 0.22-0.53s0.331-0.22 0.53-0.22h27.5c0.199 0 0.39 0.079 0.53 0.22s0.22 0.331 0.22 0.53v15.25z"></path>
<path d="M13.726 16.418c0.055 0.036 0.116 0.061 0.181 0.073s0.131 0.012 0.195-0.002c0.064-0.013 0.125-0.039 0.18-0.076s0.101-0.084 0.137-0.139l3.938-6c0.073-0.111 0.099-0.246 0.072-0.376s-0.104-0.244-0.215-0.316c-0.111-0.073-0.246-0.098-0.376-0.072s-0.244 0.104-0.316 0.215l-3.938 6c-0.036 0.055-0.061 0.116-0.073 0.181s-0.012 0.131 0.002 0.195c0.013 0.064 0.039 0.125 0.076 0.18s0.084 0.101 0.139 0.137z"></path>
<path d="M19.18 16.384c0.102 0.085 0.233 0.126 0.365 0.114s0.254-0.076 0.339-0.178l2.5-3c0.075-0.090 0.116-0.203 0.116-0.32s-0.041-0.23-0.116-0.32l-2.5-3c-0.042-0.051-0.093-0.093-0.152-0.124s-0.122-0.050-0.188-0.056c-0.066-0.006-0.132 0.001-0.195 0.020s-0.121 0.051-0.172 0.093c-0.051 0.042-0.092 0.094-0.123 0.152s-0.049 0.122-0.055 0.188 0.001 0.132 0.021 0.195c0.020 0.063 0.052 0.121 0.094 0.171l2.233 2.68-2.233 2.68c-0.085 0.102-0.126 0.233-0.114 0.365s0.076 0.254 0.178 0.339z"></path>
<path d="M12.116 16.32c0.042 0.051 0.093 0.093 0.152 0.124s0.122 0.050 0.188 0.056c0.066 0.006 0.132-0.001 0.195-0.020s0.121-0.051 0.172-0.093c0.051-0.042 0.092-0.094 0.123-0.152s0.049-0.122 0.055-0.188-0.001-0.132-0.021-0.195c-0.020-0.063-0.052-0.121-0.094-0.172l-2.233-2.68 2.233-2.68c0.043-0.050 0.075-0.109 0.094-0.171s0.027-0.129 0.021-0.195-0.024-0.13-0.055-0.188c-0.031-0.058-0.072-0.11-0.123-0.152s-0.109-0.074-0.172-0.093c-0.063-0.020-0.129-0.026-0.195-0.020s-0.129 0.025-0.188 0.056-0.11 0.073-0.152 0.124l-2.5 3c-0.075 0.090-0.116 0.203-0.116 0.32s0.041 0.23 0.116 0.32l2.5 3z"></path>
</symbol>
<symbol id="icon-Contact" viewBox="0 0 32 32">
<path d="M8.607 25.333l-5.94 4.667v-24.667c0-0.354 0.14-0.693 0.391-0.943s0.589-0.391 0.943-0.391h24c0.354 0 0.693 0.14 0.943 0.391s0.391 0.589 0.391 0.943v18.667c0 0.354-0.14 0.693-0.391 0.943s-0.589 0.391-0.943 0.391h-19.393z"></path>
</symbol>
<symbol id="icon-Contrast" viewBox="0 0 32 32">
<path d="M16.533 28.8c-7.364 0-13.333-5.969-13.333-13.333s5.969-13.333 13.333-13.333c7.364 0 13.333 5.969 13.333 13.333s-5.969 13.333-13.333 13.333zM7.639 21.367c0.876 1.311 2.033 2.412 3.385 3.223s2.869 1.311 4.438 1.466c1.57 0.154 3.154-0.041 4.639-0.572s2.834-1.386 3.949-2.501c1.115-1.115 1.969-2.464 2.5-3.949s0.727-3.069 0.572-4.639c-0.155-1.57-0.655-3.085-1.466-4.438s-1.911-2.509-3.223-3.385c0.575 2.051 0.593 4.218 0.054 6.279s-1.619 3.94-3.125 5.446c-1.505 1.507-3.385 2.585-5.445 3.125s-4.227 0.522-6.278-0.053z"></path>
</symbol>
<symbol id="icon-Copyright" viewBox="0 0 32 32">
<path d="M16 2.667c7.36 0 13.333 5.973 13.333 13.333s-5.973 13.333-13.333 13.333c-7.36 0-13.333-5.973-13.333-13.333s5.973-13.333 13.333-13.333zM16 5.333c-5.893 0-10.667 4.773-10.667 10.667s4.773 10.667 10.667 10.667c5.893 0 10.667-4.773 10.667-10.667s-4.773-10.667-10.667-10.667zM16 9.333c2.427 0 4.551 1.297 5.717 3.237l-2.285 1.372c-0.36-0.6-0.87-1.095-1.481-1.435s-1.3-0.516-1.999-0.507c-0.699 0.009-1.384 0.2-1.986 0.556s-1.1 0.863-1.445 1.472c-0.345 0.608-0.524 1.297-0.52 1.996s0.192 1.385 0.544 1.989 0.856 1.106 1.462 1.454c0.606 0.349 1.293 0.532 1.992 0.532 0.691 0 1.37-0.178 1.971-0.518s1.104-0.831 1.459-1.423l2.287 1.371c-0.749 1.251-1.889 2.223-3.243 2.764s-2.849 0.625-4.255 0.235c-1.406-0.389-2.645-1.229-3.528-2.39s-1.36-2.58-1.359-4.039c0-3.68 2.987-6.667 6.667-6.667z"></path>
</symbol>
<symbol id="icon-cv" viewBox="0 0 32 32">
<path d="M22.691 20.039l-6.246 5.962-6.246-5.962c-4.682 0.194-8.42 3.85-8.42 8.363v0.6c0 1.656 1.408 3 3.143 3h23.048c1.735 0 3.143-1.344 3.143-3v-0.6c0-4.513-3.739-8.169-8.42-8.363zM2.668 4.989l0.419 0.094v3.65c-0.458 0.262-0.786 0.719-0.786 1.269 0 0.525 0.301 0.963 0.727 1.231l-1.021 3.894c-0.111 0.431 0.138 0.875 0.498 0.875h2.737c0.36 0 0.609-0.444 0.498-0.875l-1.021-3.894c0.426-0.269 0.727-0.706 0.727-1.231 0-0.55-0.327-1.006-0.786-1.269v-3.287l4.321 0.994c-0.563 1.075-0.917 2.275-0.917 3.563 0 4.419 3.752 8 8.381 8s8.381-3.581 8.381-8c0-1.287-0.347-2.487-0.917-3.563l6.305-1.45c1.192-0.275 1.192-1.694 0-1.969l-12.467-2.875c-0.851-0.194-1.748-0.194-2.599 0l-12.48 2.869c-1.185 0.275-1.185 1.7 0 1.975z"></path>
</symbol>
<symbol id="icon-game-development" viewBox="0 0 32 32">
<path d="M14 16.5h4v1h-4v-1z"></path>
<path d="M15.5 15h1v4h-1v-4z"></path>
<path d="M28.5 16.5h1v1h-1v-1z"></path>
<path d="M24.5 16.5h1v1h-1v-1z"></path>
<path d="M26.5 14.5h1v1h-1v-1z"></path>
<path d="M26.5 18.5h1v1h-1v-1z"></path>
<path d="M4.61 8.813l-2.25-2.813 2.25-2.813 0.781 0.625-1.75 2.188 1.75 2.188-0.781 0.625z"></path>
<path d="M12.39 8.813l-0.781-0.625 1.751-2.188-1.751-2.188 0.781-0.625 2.249 2.813-2.249 2.813z"></path>
<path d="M6.373 7.67l3.501-3.999 0.752 0.658-3.501 3.999-0.752-0.659z"></path>
<path d="M4 22h-2v-2h1v1h1v1z"></path>
<path d="M30.5 1h-29c-0.828 0-1.5 0.672-1.5 1.5v20c0 0.828 0.672 1.5 1.5 1.5h10.5v2.5c0 0.828-0.672 1.5-1.5 1.5h-2.5v3h16v-3h-2.5c-0.828 0-1.5-0.672-1.5-1.5v-2.5h10.5c0.828 0 1.5-0.672 1.5-1.5v-20c0-0.828-0.672-1.5-1.5-1.5zM23 29v1h-14v-1h14zM16 27.021c0.828 0 1.5-0.672 1.5-1.5v-1.521h1.5v2.5c0.002 0.543 0.182 1.070 0.513 1.5h-7.026c0.331-0.43 0.511-0.957 0.513-1.5v-2.5h1.5v1.521c0 0.828 0.672 1.5 1.5 1.5zM15.5 25.521v-1.521h1v1.521c0 0.276-0.224 0.5-0.5 0.5s-0.5-0.224-0.5-0.5zM31 22.5c0 0.276-0.224 0.5-0.5 0.5h-29c-0.276 0-0.5-0.224-0.5-0.5v-4.5h10.1c0.414 2.035 2.044 3.602 4.094 3.936s4.093-0.636 5.13-2.436h2.35c0.838 1.457 2.354 2.393 4.031 2.492s3.292-0.656 4.294-2.005v2.513zM27 21c-1.52 0.004-2.909-0.859-3.579-2.223l-0.138-0.277h-3.565l-0.138 0.277c-0.877 1.768-2.912 2.633-4.793 2.036s-3.046-2.477-2.743-4.427c0.303-1.95 1.983-3.388 3.957-3.386h11c2.209 0 4 1.791 4 4s-1.791 4-4 4zM31 14.013c-0.94-1.265-2.424-2.011-4-2.013h-11c-2.76 0.003-4.997 2.24-5 5h-10v-14.5c0-0.276 0.224-0.5 0.5-0.5h29c0.276 0 0.5 0.224 0.5 0.5v11.513z"></path>
<path d="M20.5 16.5h2v1h-2v-1z"></path>
<path d="M15 4h4v1h-4v-1z"></path>
<path d="M21 4h8v1h-8v-1z"></path>
<path d="M22 6h7v1h-7v-1z"></path>
<path d="M16 6h4v1h-4v-1z"></path>
<path d="M15 8h10v1h-10v-1z"></path>
<path d="M27 8h2v1h-2v-1z"></path>
<path d="M3 10h5v1h-5v-1z"></path>
<path d="M10 10h9.5v1h-9.5v-1z"></path>
<path d="M21 10h8v1h-8v-1z"></path>
<path d="M3 12h8v1h-8v-1z"></path>
<path d="M3 14h4v1h-4v-1z"></path>
<path d="M8 14h2v1h-2v-1z"></path>
</symbol>
<symbol id="icon-Home" viewBox="0 0 32 32">
<path d="M26.667 26.666c0 0.354-0.14 0.693-0.391 0.943s-0.589 0.39-0.943 0.39h-18.667c-0.354 0-0.693-0.14-0.943-0.39s-0.391-0.589-0.391-0.943v-12h-4l13.769-12.517c0.245-0.223 0.565-0.347 0.897-0.347s0.652 0.124 0.897 0.347l13.769 12.517h-4v12z"></path>
</symbol>
<symbol id="icon-illustration" viewBox="0 0 32 32">
<path d="M14.875 23.218c-0.259 0-0.469 0.21-0.469 0.469s0.21 0.469 0.469 0.469h2.25c0.259 0 0.469-0.21 0.469-0.469s-0.21-0.469-0.469-0.469h-2.25z"></path>
<path d="M5.625 15.94h3.098c0.189 0.493 0.666 0.844 1.224 0.844s1.035-0.351 1.224-0.844h0.619c0.259 0 0.469-0.21 0.469-0.469s-0.21-0.469-0.469-0.469h-0.619c-0.189-0.493-0.666-0.844-1.224-0.844s-1.035 0.351-1.224 0.844h-3.098c-0.259 0-0.469 0.21-0.469 0.469s0.21 0.469 0.469 0.469zM9.948 15.096c0.207 0 0.375 0.168 0.375 0.375s-0.168 0.375-0.375 0.375c-0.207 0-0.375-0.168-0.375-0.375s0.168-0.375 0.375-0.375z"></path>
<path d="M5.625 13.252h0.598c0.189 0.493 0.666 0.844 1.224 0.844s1.035-0.351 1.224-0.844h3.119c0.259 0 0.469-0.21 0.469-0.469s-0.21-0.469-0.469-0.469h-3.119c-0.189-0.493-0.666-0.844-1.224-0.844s-1.035 0.351-1.224 0.844h-0.598c-0.259 0-0.469 0.21-0.469 0.469s0.21 0.469 0.469 0.469zM7.448 12.408c0.207 0 0.375 0.168 0.375 0.375s-0.168 0.375-0.375 0.375c-0.207 0-0.375-0.168-0.375-0.375s0.168-0.375 0.375-0.375z"></path>
<path d="M11.885 8.94c0.259 0 0.469-0.21 0.469-0.469s-0.21-0.469-0.469-0.469-0.469 0.21-0.469 0.469c0 0.259 0.21 0.469 0.469 0.469z"></path>
<path d="M10.594 8.94c0.259 0 0.469-0.21 0.469-0.469s-0.21-0.469-0.469-0.469-0.469 0.21-0.469 0.469c0 0.259 0.21 0.469 0.469 0.469z"></path>
<path d="M9.302 8.94c0.259 0 0.469-0.21 0.469-0.469s-0.21-0.469-0.469-0.469c-0.259 0-0.469 0.21-0.469 0.469s0.21 0.469 0.469 0.469z"></path>
<path d="M30.594 3.155h-0.176l0.131-0.131c0.392-0.392 0.392-1.030 0-1.423l-1.026-1.026c-0.392-0.392-1.030-0.392-1.423 0l-2.579 2.58h-24.115c-0.775 0-1.406 0.631-1.406 1.406v19.467c0 0.948 0.771 1.719 1.719 1.719h11.103v3.316h-2.259c-0.603 0-1.094 0.491-1.094 1.094v0.468c0 0.603 0.491 1.094 1.094 1.094h10.875c0.603 0 1.094-0.491 1.094-1.094v-0.468c0-0.603-0.491-1.094-1.094-1.094h-2.259v-3.316h5.009c0.259 0 0.469-0.21 0.469-0.469s-0.21-0.469-0.469-0.469h-22.469c-0.431 0-0.781-0.35-0.781-0.781v-1.388h30.125v1.388c0 0.431-0.35 0.781-0.781 0.781h-3.906c-0.259 0-0.469 0.21-0.469 0.469s0.21 0.469 0.469 0.469h3.906c0.948 0 1.719-0.771 1.719-1.719v-19.466c0-0.775-0.631-1.406-1.406-1.406zM21.438 30c0.086 0 0.156 0.070 0.156 0.156v0.468c0 0.086-0.070 0.156-0.156 0.156h-10.875c-0.086 0-0.156-0.070-0.156-0.156v-0.468c0-0.086 0.070-0.156 0.156-0.156h10.875zM13.759 25.747h4.482v3.316h-4.482v-3.316zM28.763 1.239c0.027-0.027 0.070-0.027 0.097 0l1.026 1.026c0.027 0.027 0.027 0.070 0 0.097l-0.979 0.979-1.123-1.123 0.979-0.979zM27.121 2.881l1.123 1.123-0.327 0.327-1.123-1.123 0.327-0.327zM26.131 3.87l1.123 1.123-5.547 5.547-1.123-1.123 5.547-5.547zM25.438 8.156c0.638 0 1.156 0.519 1.156 1.156s-0.519 1.156-1.156 1.156-1.156-0.519-1.156-1.156c0-0.007 0.001-0.015 0.001-0.022l1.133-1.133c0.007-0 0.015-0.001 0.022-0.001zM20.893 11.052l-1.387 0.567 0.567-1.387 0.821 0.821zM31.063 21.703h-30.125v-17.142c0-0.258 0.21-0.469 0.469-0.469h23.177l-0.715 0.715h-15.931c-0.259 0-0.469 0.21-0.469 0.469s0.21 0.469 0.469 0.469h14.994l-3.306 3.306c-0.093 0.094-0.167 0.204-0.217 0.327l-1.047 2.563c-0.096 0.235-0.042 0.504 0.138 0.684 0.121 0.121 0.281 0.185 0.445 0.185 0.080 0 0.161-0.015 0.239-0.047l2.563-1.047c0.12-0.049 0.227-0.12 0.319-0.209l1.426-1.426c0.307 0.775 1.063 1.325 1.946 1.325 1.154 0 2.094-0.939 2.094-2.094 0-0.883-0.55-1.639-1.324-1.946l1.621-1.621h1.582v14.306h-0.248l-1.699-2.942c-0.129-0.224-0.416-0.301-0.64-0.172s-0.301 0.416-0.172 0.64l1.428 2.474h-6.548l-0.702-1.216 3.274-5.671 1.454 2.519c0.13 0.224 0.416 0.301 0.64 0.172s0.301-0.416 0.172-0.64l-1.552-2.688c-0.149-0.258-0.416-0.413-0.715-0.413s-0.566 0.154-0.715 0.413l-3.101 5.37-3.978-6.891c-0.149-0.258-0.416-0.413-0.715-0.413s-0.565 0.154-0.715 0.413l-1.057 1.831v-5.025c0-0.603-0.491-1.094-1.094-1.094h-8.041c-0.603 0-1.094 0.491-1.094 1.094v10.25c0 0.431 0.35 0.781 0.781 0.781h5.98l-0.697 1.207h-7.068v-14.306h3.16c0.259 0 0.469-0.21 0.469-0.469s-0.21-0.469-0.469-0.469h-3.316c-0.431 0-0.781 0.35-0.781 0.781v14.618c0 0.431 0.35 0.781 0.781 0.781h27.133c0.431 0 0.781-0.35 0.781-0.781v-14.618c0-0.431-0.35-0.781-0.781-0.781h-0.801l0.715-0.715h1.113c0.259 0 0.469 0.21 0.469 0.469v17.142zM12.885 10.408v7.498h-8.354v-7.498h8.354zM4.531 9.471v-1.659c0-0.086 0.070-0.156 0.156-0.156h8.042c0.086 0 0.156 0.070 0.156 0.156v1.659h-8.354zM11.438 18.844h1.604c0.431 0 0.781-0.35 0.781-0.781v-0.993c0.117 0.056 0.248 0.087 0.385 0.087 0.32 0 0.607-0.166 0.766-0.443l0.798-1.382c0.024-0.042 0.061-0.051 0.088-0.051s0.064 0.009 0.088 0.051l0.492 0.852c0.16 0.277 0.447 0.443 0.767 0.443s0.607-0.165 0.767-0.443l0.122-0.211 2.355 4.079h-9.708l0.697-1.207zM13.823 15.5v-0.788l1.772-3.069 1.958 3.391-0.347 0.602-0.447-0.773c-0.188-0.325-0.524-0.519-0.9-0.519s-0.712 0.194-0.9 0.519l-0.752 1.303-0.384-0.666z"></path>
</symbol>
<symbol id="icon-location" viewBox="0 0 32 32">
<path d="M2.667 6.667l9.333-4 8 4 8.404-3.601c0.102-0.043 0.212-0.061 0.322-0.051s0.216 0.047 0.308 0.108c0.092 0.061 0.168 0.144 0.22 0.241s0.080 0.206 0.079 0.316v21.655l-9.333 4-8-4-8.404 3.601c-0.101 0.043-0.212 0.061-0.322 0.051s-0.216-0.047-0.308-0.108c-0.092-0.061-0.168-0.144-0.22-0.241s-0.080-0.206-0.079-0.316v-21.655zM20 26.352v-16.784l-0.087 0.037-7.913-3.957v16.784l0.087-0.037 7.913 3.957z"></path>
</symbol>
<symbol id="icon-mail" viewBox="0 0 32 32">
<path d="M4 4h24c0.354 0 0.693 0.14 0.943 0.391s0.391 0.589 0.391 0.943v21.333c0 0.354-0.14 0.693-0.391 0.943s-0.589 0.391-0.943 0.391h-24c-0.354 0-0.693-0.14-0.943-0.391s-0.391-0.589-0.391-0.943v-21.333c0-0.354 0.14-0.693 0.391-0.943s0.589-0.391 0.943-0.391zM16.080 15.577l-8.549-7.26-1.727 2.032 10.293 8.74 10.108-8.747-1.744-2.017-8.381 7.252z"></path>
</symbol>
<symbol id="icon-Microphone" viewBox="0 0 32 32">
<path d="M16 0c-3.452 0-6.261 2.92-6.261 6.509v9.491c0 3.59 2.809 6.509 6.261 6.509s6.261-2.92 6.261-6.509v-9.491c0-3.589-2.809-6.509-6.261-6.509zM16 21.118c-2.46 0-4.495-1.929-4.819-4.422h9.638c-0.324 2.494-2.359 4.422-4.819 4.422zM20.87 15.304h-9.739v-8.795c0-2.822 2.184-5.118 4.87-5.118s4.87 2.296 4.87 5.118v8.795z"></path>
<path d="M25.739 12.522c-0.384 0-0.696 0.312-0.696 0.696v2.783c0 4.986-4.057 9.044-9.043 9.044s-9.043-4.057-9.043-9.044v-2.783c0-0.384-0.312-0.696-0.696-0.696s-0.696 0.312-0.696 0.696v2.783c0 5.519 4.31 10.039 9.739 10.399v4.209h-3.478c-0.384 0-0.696 0.312-0.696 0.696s0.312 0.696 0.696 0.696h8.348c0.384 0 0.696-0.312 0.696-0.696s-0.312-0.696-0.696-0.696h-3.478v-4.209c5.43-0.36 9.739-4.881 9.739-10.399v-2.783c0-0.384-0.312-0.696-0.696-0.696z"></path>
</symbol>
<symbol id="icon-Mobile" viewBox="0 0 32 32">
<path d="M8 2.667h16c0.354 0 0.693 0.14 0.943 0.391s0.391 0.589 0.391 0.943v24c0 0.354-0.14 0.693-0.391 0.943s-0.589 0.391-0.943 0.391h-16c-0.354 0-0.693-0.14-0.943-0.391s-0.391-0.589-0.391-0.943v-24c0-0.354 0.14-0.693 0.391-0.943s0.589-0.391 0.943-0.391zM16 22.667c-0.354 0-0.693 0.14-0.943 0.391s-0.391 0.589-0.391 0.943 0.14 0.693 0.391 0.943c0.25 0.25 0.589 0.391 0.943 0.391s0.693-0.14 0.943-0.391c0.25-0.25 0.391-0.589 0.391-0.943s-0.14-0.693-0.391-0.943c-0.25-0.25-0.589-0.391-0.943-0.391z"></path>
</symbol>
<symbol id="icon-Photographer" viewBox="0 0 32 32">
<path d="M22.71 29.935h7.942l-2.039-6.117c-0.533-1.599-1.894-2.786-3.551-3.096l-5.449-1.022v-1.261c1.305-0.942 2.227-2.377 2.494-4.032 1.218-0.206 2.151-1.261 2.151-2.537v-3.613c0-4.553-3.705-8.258-8.258-8.258s-8.258 3.705-8.258 8.258v3.613c0 1.274 0.929 2.336 2.145 2.544 0.268 1.655 1.195 3.091 2.501 4.032v1.254l-5.449 1.022c-1.657 0.311-3.018 1.497-3.551 3.096l-2.038 6.116h7.942v-1.032h-1.403l0.872-3.488-1.001-0.25-0.935 3.738h-4.042l1.586-4.758c0.414-1.244 1.473-2.167 2.762-2.409l3.288-0.616 0.841 3.782c-0.549 0.238-0.934 0.785-0.934 1.42v4.129c0 0.854 0.695 1.548 1.548 1.548h8.258c0.854 0 1.548-0.695 1.548-1.548v-4.129c0-0.635-0.385-1.181-0.934-1.42l0.841-3.782 3.288 0.616c1.289 0.242 2.347 1.165 2.762 2.409l1.586 4.758h-4.042l-0.935-3.738-1.001 0.25 0.872 3.488h-1.403v1.032zM20.569 20.93l-0.713 3.207-0.357-1.428h-2.254l2.023-2.023 1.3 0.244zM18.952 24.774h-5.903l0.258-1.032h5.387l0.258 1.032zM16 22.496l-2.581-2.581v-0.87c0.787 0.362 1.659 0.568 2.581 0.568s1.794-0.208 2.581-0.57v0.873l-2.581 2.581zM22.194 13.324v-2.906c0.599 0.214 1.032 0.781 1.032 1.453s-0.433 1.239-1.032 1.453zM9.806 13.331c-0.601-0.213-1.032-0.787-1.032-1.46s0.431-1.247 1.032-1.46v2.92zM8.774 9.82v-1.562c0-3.985 3.241-7.226 7.226-7.226s7.226 3.241 7.226 7.226v1.562c-0.306-0.231-0.659-0.402-1.049-0.479-0.081-0.61-0.598-1.083-1.229-1.083-0.328 0-0.649 0.133-0.907 0.391-0.872 0.872-1.976 1.428-3.173 1.608l0.033-0.066c0.086-0.172 0.131-0.365 0.131-0.557v-0.13c0-0.687-0.559-1.246-1.246-1.246-0.328 0-0.649 0.133-0.881 0.365-1.088 1.087-2.53 1.69-4.067 1.7v-1.032h-0.516c-0.583 0-1.116 0.202-1.548 0.53zM10.839 13.419v-2.065c1.812-0.010 3.514-0.72 4.796-2.002 0.124-0.125 0.365-0.023 0.365 0.151v0.13c0 0.033-0.008 0.066-0.023 0.096l-0.812 1.625h0.835c1.802 0 3.496-0.701 4.796-2.002 0.125-0.125 0.365-0.023 0.365 0.151v3.915c0 2.846-2.315 5.161-5.161 5.161s-5.161-2.315-5.161-5.161zM12.731 20.686l2.023 2.023h-2.254l-0.357 1.428-0.713-3.207 1.3-0.244zM11.871 30.968c-0.284 0-0.516-0.231-0.516-0.516v-4.129c0-0.285 0.232-0.516 0.516-0.516h1.606c-0.671 0.657-1.090 1.57-1.090 2.581s0.418 1.924 1.090 2.581h-1.606zM16 30.968c-1.423 0-2.581-1.158-2.581-2.581s1.158-2.581 2.581-2.581c1.423 0 2.581 1.158 2.581 2.581s-1.158 2.581-2.581 2.581zM20.645 30.452c0 0.285-0.232 0.516-0.516 0.516h-1.606c0.672-0.657 1.090-1.57 1.090-2.581s-0.418-1.924-1.090-2.581h1.606c0.284 0 0.516 0.231 0.516 0.516v4.129z"></path>
<path d="M16 26.839c-0.854 0-1.548 0.695-1.548 1.548s0.695 1.548 1.548 1.548c0.854 0 1.548-0.695 1.548-1.548s-0.695-1.548-1.548-1.548zM16 28.903c-0.284 0-0.516-0.231-0.516-0.516s0.232-0.516 0.516-0.516 0.516 0.231 0.516 0.516c0 0.285-0.232 0.516-0.516 0.516z"></path>
</symbol>
<symbol id="icon-Portfolio" viewBox="0 0 32 32">
<path d="M12 17.333v4h8v-4h9.333v9.333c0 0.354-0.14 0.693-0.391 0.943s-0.589 0.391-0.943 0.391h-24c-0.354 0-0.693-0.14-0.943-0.391s-0.391-0.589-0.391-0.943v-9.333h9.333zM14.667 14.667h2.667v4h-2.667v-4zM9.333 6.667v-4c0-0.354 0.14-0.693 0.391-0.943s0.589-0.391 0.943-0.391h10.667c0.354 0 0.693 0.14 0.943 0.391s0.391 0.589 0.391 0.943v4h5.333c0.354 0 0.693 0.14 0.943 0.391s0.391 0.589 0.391 0.943v6.667h-9.333v-2.667h-8v2.667h-9.333v-6.667c0-0.354 0.14-0.693 0.391-0.943s0.589-0.391 0.943-0.391h5.333zM12 4v2.667h8v-2.667h-8z"></path>
</symbol>
<symbol id="icon-Services" viewBox="0 0 32 32">
<path d="M31.111 7.621v0.379h-9.778v-8h0.463c0.486 0 0.953 0.158 1.297 0.439l7.482 6.121c0.344 0.281 0.537 0.663 0.537 1.061zM20.722 10c-1.008 0-1.833-0.675-1.833-1.5v-8.5h-15.278c-1.013 0-1.833 0.672-1.833 1.5v29c0 0.828 0.821 1.5 1.833 1.5h25.667c1.012 0 1.833-0.672 1.833-1.5v-20.5h-10.389zM11.189 25.032c-0.037 0.032-0.082 0.058-0.131 0.077s-0.103 0.028-0.157 0.030c-0.054 0.001-0.108-0.006-0.159-0.021s-0.097-0.039-0.137-0.070l-4.955-3.801c-0.041-0.032-0.074-0.070-0.096-0.112s-0.034-0.088-0.034-0.134c0-0.046 0.012-0.092 0.034-0.134s0.055-0.081 0.096-0.112l4.955-3.801c0.040-0.030 0.086-0.054 0.137-0.070s0.105-0.023 0.159-0.021c0.054 0.001 0.107 0.012 0.157 0.030s0.094 0.044 0.131 0.077l1.496 1.305c0.038 0.033 0.067 0.072 0.086 0.114s0.028 0.088 0.025 0.133-0.016 0.089-0.040 0.13c-0.024 0.041-0.058 0.077-0.099 0.107l-3.114 2.242 3.114 2.242c0.041 0.030 0.075 0.066 0.099 0.107s0.038 0.085 0.040 0.13c0.003 0.045-0.006 0.090-0.025 0.133s-0.048 0.081-0.086 0.114l-1.496 1.305zM15.108 28.186l-2.097-0.498c-0.105-0.025-0.194-0.083-0.246-0.161s-0.065-0.171-0.035-0.257l4.693-13.227c0.031-0.086 0.102-0.159 0.197-0.202s0.209-0.053 0.314-0.028l2.097 0.498c0.052 0.012 0.101 0.033 0.143 0.061s0.078 0.062 0.103 0.101c0.026 0.039 0.043 0.082 0.049 0.126s0.001 0.089-0.014 0.131l-4.693 13.227c-0.015 0.043-0.040 0.082-0.074 0.117s-0.076 0.063-0.123 0.085c-0.047 0.021-0.1 0.035-0.153 0.040s-0.108 0.001-0.16-0.011zM27.39 21.246l-4.955 3.801c-0.039 0.030-0.086 0.054-0.137 0.070s-0.105 0.023-0.159 0.021c-0.054-0.001-0.107-0.012-0.157-0.030s-0.094-0.044-0.131-0.077l-1.496-1.305c-0.038-0.033-0.067-0.072-0.086-0.114s-0.028-0.087-0.025-0.133 0.016-0.089 0.040-0.13c0.024-0.041 0.058-0.077 0.099-0.107l3.114-2.242-3.114-2.242c-0.041-0.030-0.075-0.066-0.099-0.107s-0.038-0.085-0.040-0.13c-0.003-0.045 0.006-0.090 0.025-0.133s0.048-0.081 0.086-0.114l1.496-1.305c0.037-0.032 0.081-0.058 0.131-0.077s0.103-0.028 0.157-0.030c0.054-0.001 0.108 0.006 0.159 0.021s0.097 0.039 0.137 0.070l4.955 3.801c0.041 0.031 0.074 0.070 0.096 0.112s0.034 0.088 0.034 0.134c0 0.046-0.012 0.092-0.034 0.134s-0.055 0.080-0.096 0.112z"></path>
</symbol>
<symbol id="icon-Star" viewBox="0 0 32 32">
<path d="M16 23.546l6.952-1.796 2.905 9.127-9.857-7.331zM32 11.749h-12.238l-3.762-11.749-3.762 11.749h-12.238l9.905 7.282-3.762 11.749 25.857-19.031z"></path>
</symbol>
</defs></svg>