<svg aria-hidden="true" style="position:absolute;width:0;height:0;overflow:hidden" xmlns="http://www.w3.org/2000/svg"><defs><symbol id="icon-dribbble" viewBox="0 0 32 32"><path d="M26.652 15.429a10.608 10.608 0 0 0-2.097-5.801c-.383.413-.793.8-1.227 1.16a17.552 17.552 0 0 1-4.417 2.68c.223.467.427.919.607 1.345v.004c.051.119.1.239.147.36 2.019-.227 4.147-.144 6.209.135.274.037.533.077.779.117zM14.139 5.496a61.596 61.596 0 0 1 3.589 5.693c1.631-.643 2.979-1.453 4.064-2.356.377-.31.731-.647 1.061-1.007A10.62 10.62 0 0 0 16 5.333c-.624 0-1.247.054-1.861.161v.001zm-8.468 7.833a39.22 39.22 0 0 0 2.72-.164 42.104 42.104 0 0 0 6.483-1.096 72.568 72.568 0 0 0-3.6-5.636 10.684 10.684 0 0 0-5.603 6.896zm2.04 9.384a18.958 18.958 0 0 1 2.1-2.532c1.939-1.987 4.227-3.533 6.875-4.387l.083-.024c-.22-.485-.427-.919-.635-1.327-2.448.713-5.027 1.159-7.596 1.389a41.366 41.366 0 0 1-3.204.171 10.624 10.624 0 0 0 2.379 6.709h-.001zm12.296 3.173a47.912 47.912 0 0 0-2.176-7.612c-2.669.969-4.796 2.387-6.44 4.077-.663.67-1.252 1.41-1.756 2.207A10.618 10.618 0 0 0 16 26.666a10.645 10.645 0 0 0 4.007-.777v-.003zm2.497-1.433c2.082-1.6 3.5-3.912 3.983-6.493a16.342 16.342 0 0 0-1.66-.315 16.051 16.051 0 0 0-4.24-.044 52.485 52.485 0 0 1 1.917 6.853v-.001zM16 29.333C8.636 29.333 2.667 23.364 2.667 16S8.636 2.667 16 2.667 29.333 8.636 29.333 16 23.364 29.333 16 29.333z"/></symbol><symbol id="icon-facebook" viewBox="0 0 32 32"><path d="M18.666 18h3.333l1.333-5.333h-4.667V10c0-1.373 0-2.667 2.667-2.667h2v-4.48c-.435-.057-2.076-.187-3.809-.187-3.62 0-6.191 2.209-6.191 6.267v3.733h-4v5.333h4v11.333h5.333V17.999z"/></symbol><symbol id="icon-instagram" viewBox="0 0 32 32"><path d="M16 2.666c3.623 0 4.075.013 5.496.08 1.42.067 2.387.289 3.237.62a6.51 6.51 0 0 1 2.363 1.537 6.538 6.538 0 0 1 1.537 2.363c.329.849.553 1.817.62 3.237.063 1.421.08 1.873.08 5.496s-.013 4.075-.08 5.496c-.067 1.42-.291 2.387-.62 3.237a6.516 6.516 0 0 1-1.537 2.363 6.538 6.538 0 0 1-2.363 1.537c-.849.329-1.817.553-3.237.62-1.421.063-1.873.08-5.496.08s-4.075-.014-5.496-.08c-1.42-.067-2.387-.291-3.237-.62a6.53 6.53 0 0 1-2.363-1.537 6.53 6.53 0 0 1-1.537-2.363c-.331-.849-.553-1.817-.62-3.237-.063-1.421-.08-1.873-.08-5.496s.013-4.075.08-5.496c.067-1.421.289-2.387.62-3.237a6.516 6.516 0 0 1 1.537-2.363 6.53 6.53 0 0 1 2.363-1.537c.851-.331 1.816-.553 3.237-.62 1.421-.063 1.873-.08 5.496-.08zm0 6.667a6.67 6.67 0 0 0-4.714 11.381 6.67 6.67 0 0 0 9.428 0 6.67 6.67 0 0 0 0-9.428A6.67 6.67 0 0 0 16 9.333zM24.667 9a1.667 1.667 0 1 0-3.334 0 1.667 1.667 0 0 0 3.334 0zM16 12a4.003 4.003 0 0 1 4 4 4.003 4.003 0 0 1-4 4 4.003 4.003 0 0 1-4-4 4.003 4.003 0 0 1 4-4z"/></symbol><symbol id="icon-linkedin" viewBox="0 0 32 32"><path d="M9.254 6.667a2.667 2.667 0 1 1-5.334-.003 2.667 2.667 0 0 1 5.334.003zm.08 4.64H4.001V28h5.333V11.307zm8.426 0h-5.307V28h5.253v-8.76c0-4.88 6.36-5.333 6.36 0V28h5.267V17.427c0-8.227-9.413-7.92-11.627-3.88l.053-2.24z"/></symbol><symbol id="icon-twitter" viewBox="0 0 32 32"><path d="M29.549 7.542c-1.018.45-2.097.746-3.203.877a5.593 5.593 0 0 0 2.453-3.085 11.118 11.118 0 0 1-3.541 1.353 5.58 5.58 0 0 0-6.705-1.109 5.577 5.577 0 0 0-2.796 6.194A15.826 15.826 0 0 1 4.264 5.945a5.557 5.557 0 0 0-.755 2.804c0 1.933.984 3.641 2.48 4.641a5.562 5.562 0 0 1-2.525-.697v.069a5.58 5.58 0 0 0 4.473 5.468 5.603 5.603 0 0 1-2.52.096 5.58 5.58 0 0 0 5.209 3.873 11.198 11.198 0 0 1-8.254 2.309 15.783 15.783 0 0 0 8.547 2.507c10.257 0 15.867-8.497 15.867-15.867 0-.24-.007-.483-.017-.72a11.334 11.334 0 0 0 2.783-2.887l-.001-.001z"/></symbol><symbol id="icon-youtube" viewBox="0 0 32 32"><path d="M28.724 8.664c.609 2.376.609 7.336.609 7.336s0 4.96-.609 7.336c-.338 1.313-1.329 2.346-2.584 2.696-2.279.634-10.14.634-10.14.634s-7.857 0-10.14-.634c-1.26-.355-2.249-1.387-2.584-2.696C2.667 20.96 2.667 16 2.667 16s0-4.96.609-7.336c.339-1.313 1.329-2.347 2.584-2.696C8.143 5.333 16 5.333 16 5.333s7.861 0 10.14.635c1.26.355 2.249 1.387 2.584 2.696zm-15.39 12.003 8-4.667-8-4.667v9.333z"/></symbol></defs></svg>